<?xml version="1.0" standalone="no"?>
<!DOCTYPE svg PUBLIC "-//W3C//DTD SVG 20010904//EN"
 "http://www.w3.org/TR/2001/REC-SVG-20010904/DTD/svg10.dtd">
<svg version="1.0" xmlns="http://www.w3.org/2000/svg"
 width="260.000000pt" height="260.000000pt" viewBox="0 0 260.000000 260.000000"
 preserveAspectRatio="xMidYMid meet">
<metadata>
Created by potrace 1.11, written by Peter Selinger 2001-2013
</metadata>
<g transform="translate(0.000000,260.000000) scale(0.100000,-0.100000)"
fill="#000000" stroke="none">
<path d="M914 2589 c-2 -4 -1 -15 3 -25 4 -11 3 -15 -5 -10 -6 3 -14 1 -18 -5
-4 -7 -3 -9 3 -6 6 4 14 0 17 -9 3 -8 11 -12 17 -8 8 4 9 3 5 -5 -6 -9 -11 -9
-24 1 -13 11 -15 10 -9 -5 4 -11 3 -16 -3 -12 -6 3 -10 3 -11 -2 -1 -4 -2 -19
-4 -33 -1 -14 -6 -34 -11 -45 -7 -19 -6 -19 12 -5 17 14 18 13 7 -1 -7 -9 -9
-20 -5 -25 4 -4 0 -3 -9 4 -9 6 -19 8 -24 4 -4 -4 0 7 8 24 13 24 13 34 4 44
-10 10 -9 11 3 5 8 -5 12 -5 8 0 -4 4 -3 17 3 27 8 15 8 23 -1 32 -8 8 -9 6
-4 -8 5 -13 4 -17 -4 -12 -8 5 -10 1 -5 -10 5 -13 3 -15 -8 -9 -8 4 -11 5 -7
0 4 -4 2 -15 -5 -23 -9 -13 -9 -14 1 -8 6 4 12 3 12 -3 0 -5 -4 -12 -10 -16
-5 -3 -6 -13 -3 -22 5 -12 3 -14 -8 -8 -11 6 -12 5 -1 -6 14 -16 16 -33 2 -24
-5 3 -10 2 -10 -3 0 -6 7 -12 15 -16 8 -3 14 -2 12 2 -2 8 7 12 26 12 13 -1
-22 -24 -37 -25 -5 0 -10 -8 -12 -18 -1 -9 2 -15 7 -11 5 3 9 0 9 -5 0 -6 -8
-11 -17 -12 -13 0 -11 -3 7 -11 14 -6 31 -10 39 -9 11 2 11 -1 -2 -13 -18 -19
-31 -21 -21 -4 4 6 3 8 -4 4 -5 -3 -12 -3 -15 1 -2 5 -2 3 -1 -4 2 -6 -2 -14
-9 -17 -7 -3 -3 -4 7 -3 10 1 21 -4 24 -12 3 -8 0 -11 -7 -7 -7 5 -9 1 -4 -10
4 -11 2 -15 -4 -11 -6 4 -9 -3 -7 -18 1 -15 -4 -29 -14 -35 -10 -5 -12 -10 -6
-10 15 0 46 35 37 43 -3 4 1 15 10 25 10 10 14 22 10 27 -5 4 -2 5 4 1 10 -5
9 -12 -2 -30 -8 -12 -12 -26 -8 -29 3 -4 -4 -19 -18 -34 l-24 -27 35 24 c19
13 32 20 28 15 -4 -4 -2 -15 4 -24 10 -13 10 -14 -2 -4 -14 13 -40 1 -40 -19
0 -6 7 -5 16 2 12 11 15 11 12 -1 -2 -8 3 -13 10 -11 8 1 11 -2 7 -9 -5 -7
-11 -7 -17 -1 -14 14 -48 3 -48 -15 0 -10 -6 -13 -16 -9 -8 3 -12 2 -9 -3 9
-15 44 -9 38 6 -3 8 2 13 13 13 14 0 16 -2 6 -9 -8 -4 -14 -12 -14 -17 0 -5
-4 -8 -9 -6 -5 1 -9 -4 -9 -12 0 -8 -4 -18 -10 -21 -5 -3 -7 0 -4 8 3 10 -4
14 -26 15 -17 0 -28 -3 -26 -7 3 -4 -1 -8 -9 -8 -10 0 -11 5 -4 18 17 32 9 35
-11 4 -20 -29 -21 -29 -15 -4 4 18 1 30 -11 40 -11 9 -15 9 -10 2 4 -8 2 -13
-4 -13 -6 0 -9 -3 -7 -7 3 -5 -5 -8 -18 -8 -13 0 -21 5 -18 12 3 6 12 9 21 5
14 -5 15 -4 2 10 -10 11 -19 13 -27 6 -8 -6 -11 -2 -8 18 2 25 1 26 -10 10 -7
-10 -22 -17 -32 -16 -10 1 -20 1 -23 0 -27 -10 -50 -8 -50 5 0 18 -12 19 -27
4 -8 -8 -13 -8 -17 0 -4 6 -12 11 -17 11 -6 0 -7 -5 -3 -12 4 -6 3 -8 -4 -5
-5 4 -9 15 -7 25 2 9 4 19 4 22 1 3 5 -1 10 -9 11 -17 39 -23 47 -10 3 5 2 8
-3 7 -4 -1 -19 4 -33 12 -14 7 -27 14 -30 14 -3 1 -4 4 -2 9 1 4 -2 7 -8 7 -5
0 -10 -4 -10 -10 0 -17 5 -25 13 -22 5 1 6 -2 2 -7 -3 -6 -13 -7 -22 -4 -11 4
-14 3 -9 -5 5 -8 2 -10 -9 -5 -12 4 -13 8 -5 13 8 5 7 9 -4 13 -8 3 -18 2 -22
-4 -4 -7 -10 -6 -19 1 -10 8 -15 8 -21 -1 -5 -8 -3 -9 6 -4 10 6 12 4 7 -9 -5
-14 -3 -15 12 -6 14 7 20 6 24 -3 6 -17 -37 -15 -59 4 -10 8 -15 9 -11 2 4 -6
3 -14 -3 -18 -7 -4 -6 -13 1 -28 12 -22 12 -22 -10 -3 -13 12 -19 26 -16 35 5
13 4 13 -6 4 -10 -10 -9 -15 1 -28 10 -12 10 -18 -1 -31 -12 -15 -11 -16 10
-9 15 4 21 3 17 -3 -3 -5 -17 -12 -31 -14 -25 -5 -25 -4 -11 17 13 20 13 25 1
35 -8 7 -15 11 -16 9 -7 -32 -6 -79 1 -79 6 0 10 -5 10 -11 0 -5 -4 -7 -10 -4
-5 3 -10 1 -10 -4 0 -6 6 -11 13 -11 8 0 8 -3 2 -8 -14 -9 -17 -82 -4 -82 6 0
7 5 4 10 -3 6 -1 10 4 10 16 0 14 -20 -2 -26 -9 -3 -13 -24 -13 -65 1 -54 4
-62 26 -74 14 -8 21 -14 17 -15 -5 0 -17 5 -28 10 -13 7 -19 7 -19 0 0 -5 5
-10 10 -10 6 0 10 -5 10 -11 0 -5 -4 -8 -9 -5 -12 8 -8 -57 4 -66 6 -5 6 -8
-2 -8 -15 0 -12 -106 5 -120 9 -7 9 -7 2 2 -16 19 -11 32 7 17 9 -8 19 -14 22
-14 3 0 5 -3 4 -7 -1 -3 5 -5 15 -3 9 1 25 -2 36 -7 13 -7 16 -7 11 1 -4 8 2
10 21 7 17 -3 31 0 36 7 4 7 6 -3 3 -21 -2 -18 0 -30 5 -27 5 3 11 1 15 -5 3
-5 12 -10 18 -10 7 0 4 5 -6 11 -9 6 -14 15 -11 21 5 7 2 8 -6 3 -9 -6 -11 -4
-5 5 6 10 11 10 20 -3 13 -18 31 -24 20 -8 -3 5 -1 12 4 15 5 3 7 -8 6 -24 -2
-24 0 -28 10 -20 9 8 15 8 20 0 3 -5 1 -10 -5 -10 -6 0 -8 -5 -5 -11 5 -6 12
-4 20 8 16 22 11 33 -14 28 -15 -3 -18 1 -13 18 4 17 7 18 11 5 3 -8 14 -14
23 -13 9 2 22 -3 29 -11 6 -8 16 -11 23 -7 6 3 5 0 -2 -8 -11 -11 -14 -12 -21
-1 -7 11 -10 10 -14 -3 -4 -9 -3 -14 2 -11 4 3 17 -1 27 -9 10 -8 23 -15 28
-15 6 0 2 6 -8 13 -17 13 -18 14 -2 20 11 4 15 3 10 -4 -4 -8 1 -9 17 -4 21 7
22 6 11 -8 -10 -12 -10 -17 -1 -23 8 -4 9 -3 5 4 -4 7 -1 12 8 12 10 0 13 6 9
18 -4 13 -2 12 10 -4 11 -15 26 -20 52 -19 19 1 33 0 30 -4 -10 -10 -60 -9
-72 1 -9 7 -13 7 -13 -1 0 -11 7 -13 48 -15 12 -1 27 -8 33 -16 9 -13 10 -12
5 3 -3 9 -1 17 4 17 9 0 14 -15 11 -33 -1 -5 3 -6 9 -2 5 3 10 1 10 -5 0 -6 6
-10 13 -8 6 2 13 -2 14 -7 0 -6 -3 -9 -9 -7 -5 1 -6 -3 -3 -9 5 -8 10 -8 18 0
16 16 25 14 30 -6 4 -17 5 -17 6 -1 1 16 -35 45 -51 40 -3 -1 -11 5 -18 13 -9
11 -7 13 7 10 10 -2 20 -4 23 -5 3 -1 9 -2 13 -1 5 1 5 -4 1 -10 -5 -9 -2 -10
9 -6 10 4 16 2 14 -6 -1 -7 7 -11 18 -9 15 2 16 0 7 -6 -8 -5 -14 -26 -15 -45
-1 -31 -3 -35 -16 -24 -14 10 -14 10 -4 -4 7 -9 10 -19 6 -22 -3 -4 -1 -7 5
-7 12 0 14 6 16 44 1 11 7 20 14 22 7 1 8 0 2 -3 -5 -2 -10 -9 -10 -14 0 -6 4
-8 8 -5 4 2 14 0 22 -6 12 -8 12 -9 -2 -4 -10 3 -18 3 -18 -1 0 -3 8 -12 18
-20 15 -13 15 -13 -5 -3 -19 9 -23 8 -23 -5 0 -9 4 -14 8 -11 5 3 9 -1 9 -9 0
-8 -5 -11 -11 -7 -30 18 -46 -6 -24 -35 12 -15 1 -36 -14 -27 -6 4 -6 0 1 -13
6 -11 7 -24 3 -28 -4 -5 -1 -5 7 0 9 5 12 3 9 -6 -3 -8 -11 -13 -17 -12 -6 2
-11 -1 -11 -6 0 -6 9 -9 19 -8 11 0 18 4 15 9 -2 4 4 11 14 17 14 7 19 6 19
-4 0 -7 -5 -11 -12 -9 -6 3 -11 -5 -12 -17 -2 -18 0 -19 15 -7 15 12 16 11 4
-4 -15 -19 -7 -42 10 -32 7 4 8 2 4 -4 -8 -13 -46 6 -43 21 1 5 -5 12 -13 14
-10 3 -11 2 -4 -4 6 -4 10 -16 8 -25 -1 -10 4 -18 12 -18 8 0 14 -5 14 -11 0
-5 4 -8 8 -5 5 3 9 -1 9 -9 0 -12 -4 -12 -19 2 -18 16 -18 16 -12 -2 5 -12 4
-16 -4 -11 -6 3 -14 1 -18 -5 -4 -8 -3 -9 4 -5 7 4 12 3 12 -3 0 -5 -6 -12
-12 -14 -10 -4 -10 -6 0 -6 6 -1 12 -6 12 -12 0 -5 -6 -7 -12 -3 -8 5 -7 0 2
-11 11 -13 12 -19 3 -22 -8 -3 -7 -10 5 -22 9 -10 20 -16 24 -14 4 2 10 -2 14
-8 4 -8 3 -9 -5 -5 -6 4 -14 0 -17 -9 -6 -14 -9 -14 -28 2 -21 18 -21 18 -5
-2 18 -22 22 -83 7 -102 -7 -8 -3 -10 11 -6 13 3 21 1 21 -6 0 -7 -4 -9 -10
-6 -6 4 -7 -1 -3 -12 6 -16 5 -17 -13 -3 -18 14 -18 14 -5 -3 10 -13 17 -14
26 -7 9 8 15 8 20 0 4 -6 1 -9 -6 -8 -6 2 -13 -2 -16 -9 -3 -8 3 -11 16 -8 20
4 21 3 4 -20 -22 -29 -33 -32 -28 -6 2 11 -6 27 -18 38 -22 18 -22 18 -4 -4
11 -12 14 -24 9 -27 -6 -3 -12 -1 -14 6 -3 8 -7 6 -11 -5 -3 -9 -3 -16 1 -16
20 3 25 -2 12 -12 -13 -8 -12 -9 4 -7 10 2 21 -3 24 -11 3 -9 0 -11 -9 -6 -11
6 -11 5 -2 -5 12 -13 37 -5 29 9 -3 4 1 8 9 8 13 0 13 -3 0 -17 -18 -20 -20
-34 -2 -24 9 5 9 4 0 -6 -9 -10 -15 -10 -28 4 -20 20 -32 21 -16 2 21 -25 2
-93 -22 -80 -7 4 -8 3 -4 -2 5 -5 14 -9 19 -9 6 0 13 -6 16 -14 3 -9 0 -11 -9
-6 -11 6 -12 5 -1 -6 14 -16 16 -33 2 -24 -5 3 -10 1 -10 -4 0 -14 13 -14 26
-1 6 6 15 5 24 -1 13 -9 12 -10 -2 -5 -21 6 -22 3 -7 -27 10 -22 10 -22 -7 -2
-16 19 -16 19 -10 -8 6 -26 5 -27 -16 -17 -22 11 -22 10 -4 -4 11 -9 29 -14
40 -11 12 3 15 2 9 -1 -7 -3 -13 -10 -13 -15 0 -6 4 -8 9 -5 4 3 7 -10 6 -29
-2 -41 18 -86 28 -61 4 9 -1 20 -11 25 -11 7 -12 11 -4 11 7 0 10 4 7 10 -3 6
1 7 10 3 13 -5 14 -7 3 -14 -12 -8 -11 -10 12 -13 6 0 14 -7 19 -15 7 -10 13
-11 32 -1 l24 12 -22 -21 c-21 -20 -50 -30 -39 -13 2 4 1 14 -3 21 -6 10 -10
9 -14 -3 -4 -9 2 -21 13 -29 11 -8 19 -16 17 -18 -1 -2 8 7 22 21 l24 24 8
-22 c10 -26 21 -30 13 -5 -5 15 -3 15 10 -1 13 -16 16 -17 16 -4 0 11 6 15 20
11 18 -5 24 -15 21 -35 0 -5 3 -8 9 -8 5 0 10 5 10 10 0 6 10 10 23 10 13 0
29 6 36 13 10 10 12 9 9 -3 -2 -8 3 -14 10 -12 8 1 11 -2 8 -7 -4 -5 0 -11 6
-14 9 -2 10 -8 3 -18 -5 -8 -2 -6 8 4 10 11 20 17 24 14 3 -4 13 -1 22 5 9 7
13 8 9 4 -4 -5 -3 -14 2 -21 7 -8 5 -12 -5 -12 -8 0 -12 3 -10 7 2 4 -2 7 -10
7 -11 0 -12 -4 -4 -13 7 -8 7 -14 -1 -19 -5 -3 -10 -1 -10 6 0 7 -3 10 -6 6
-3 -3 -3 -11 1 -17 5 -8 12 -7 23 3 21 18 50 14 66 -8 11 -15 12 -14 12 4 0
11 -2 18 -5 16 -6 -7 -31 16 -31 29 0 6 5 3 10 -6 6 -9 19 -15 30 -13 11 2 22
-1 26 -7 4 -7 9 -7 13 1 5 8 14 4 27 -10 12 -14 13 -19 4 -14 -11 6 -10 3 3
-12 9 -11 14 -23 10 -27 -4 -4 1 -4 11 0 10 4 14 10 9 13 -14 11 -13 29 4 43
10 8 14 8 10 1 -10 -17 13 -28 24 -12 5 8 9 10 9 5 0 -5 -8 -18 -17 -28 -16
-18 -16 -18 2 -12 13 5 16 4 11 -4 -4 -7 -2 -12 4 -12 6 0 10 7 8 16 -2 10 2
19 9 21 8 3 11 -6 9 -29 l-3 -33 109 -2 c77 -2 107 0 102 8 -4 7 1 9 17 5 13
-3 18 -3 11 0 -8 4 -6 12 10 26 l23 20 -25 -16 c-28 -18 -40 -20 -40 -6 0 6 6
10 14 10 7 0 19 7 26 15 7 8 16 13 20 10 5 -3 12 0 16 6 4 7 3 9 -2 6 -13 -8
-32 23 -28 46 2 14 -2 17 -14 13 -9 -4 -6 2 8 13 14 11 22 23 18 27 -4 3 -3
15 2 25 12 21 -5 36 -23 21 -9 -8 -12 -3 -12 18 -1 16 3 26 7 24 5 -3 6 -10 3
-15 -4 -5 3 -9 14 -9 12 0 21 5 21 11 0 5 -5 7 -11 3 -7 -4 -10 -1 -7 7 3 8
-1 26 -8 41 -13 25 -12 28 11 46 21 17 23 21 9 26 -9 4 -19 4 -22 1 -3 -3 1
-5 8 -5 7 0 11 -2 8 -5 -3 -3 -12 -3 -21 1 -15 5 -15 8 -1 21 12 13 17 13 32
1 15 -11 15 -11 6 2 -14 19 -14 50 0 50 6 0 4 5 -4 10 -13 9 -13 10 0 10 9 0
11 3 5 8 -16 11 -17 33 -3 50 10 12 10 14 1 8 -8 -4 -13 -2 -13 4 0 6 -4 9 -9
6 -5 -4 -8 5 -6 19 1 15 -4 29 -14 35 -14 8 -14 10 -1 11 8 1 21 1 29 0 7 -2
10 3 6 9 -4 6 -1 18 7 27 7 9 8 14 2 10 -17 -10 -12 76 5 97 7 9 9 16 3 16 -9
0 -26 -28 -24 -40 0 -3 -8 -6 -18 -7 -18 -2 -18 -1 1 18 24 24 10 60 -21 54
-11 -2 -22 0 -25 5 -3 5 4 7 15 5 18 -4 24 3 18 23 -2 4 -7 6 -11 4 -5 -1 -6
2 -2 8 4 7 11 8 18 1 8 -6 18 -5 30 4 16 12 16 13 1 19 -9 4 -19 4 -22 1 -3
-3 1 -5 8 -5 7 0 11 -2 8 -5 -3 -3 -13 -2 -22 1 -14 5 -15 9 -4 16 10 7 10 11
1 15 -7 2 -13 9 -13 15 0 5 15 -1 33 -13 20 -15 27 -17 19 -7 -15 19 -7 42 11
31 7 -3 3 3 -7 15 -11 12 -25 22 -33 22 -7 0 -13 3 -13 8 0 13 38 41 46 34 5
-4 2 1 -5 11 -9 11 -10 17 -2 17 6 0 11 7 11 15 0 8 -5 15 -11 15 -5 0 -8 -4
-4 -9 3 -6 -3 -14 -12 -20 -11 -6 -13 -11 -5 -11 7 0 10 -5 6 -11 -9 -16 -24
10 -16 29 4 11 1 13 -9 7 -8 -5 -11 -5 -6 1 5 5 12 9 15 9 4 0 13 4 21 9 10 6
19 3 29 -10 14 -18 14 -18 10 1 -4 17 0 21 23 23 15 1 31 -3 34 -8 5 -8 12 -7
23 2 12 10 14 10 8 0 -5 -8 2 -16 19 -22 20 -8 25 -15 20 -27 -3 -10 -3 -14 1
-10 5 4 13 -3 20 -15 12 -22 12 -22 11 7 -1 17 -6 34 -12 38 -6 5 -4 7 5 4 8
-2 15 -10 15 -18 1 -26 15 -36 45 -33 23 3 29 0 24 -9 -4 -6 -3 -9 1 -4 5 4
17 -1 28 -10 20 -18 20 -18 3 8 -15 24 -15 26 1 26 10 0 25 -5 33 -13 18 -16
31 -16 49 -1 8 7 12 8 9 2 -3 -5 0 -15 7 -22 9 -8 15 -9 17 -2 2 7 12 7 32 0
21 -9 27 -8 24 1 -3 7 -10 13 -16 13 -5 0 -13 3 -17 6 -3 4 10 5 30 3 19 -1
33 0 31 5 -3 4 5 7 17 6 12 -1 22 -7 22 -12 0 -6 4 -15 9 -20 5 -4 6 -3 2 4
-3 6 -2 14 4 18 6 4 8 11 5 16 -4 5 -2 9 4 9 5 0 11 -5 13 -12 2 -6 4 117 4
275 -1 210 -4 283 -12 276 -6 -5 -10 -25 -8 -44 1 -20 -2 -35 -8 -35 -6 0 -9
3 -5 6 6 7 -22 39 -34 39 -4 0 -10 3 -14 7 -4 3 0 5 9 4 8 -1 19 -5 22 -9 10
-10 24 -9 24 1 0 10 -51 37 -63 33 -5 -1 -6 3 -2 9 5 8 12 7 23 -2 10 -7 14
-8 10 -4 -4 5 -3 15 3 23 9 9 8 13 0 13 -6 0 -11 -5 -11 -12 0 -6 -3 -9 -6 -5
-4 3 -21 -1 -38 -9 l-31 -16 29 25 c22 18 26 26 16 32 -9 6 -11 4 -5 -5 6 -10
4 -12 -9 -7 -12 5 -15 3 -10 -6 5 -7 0 -6 -10 3 -11 8 -14 16 -7 18 6 2 11 9
11 15 0 8 -4 7 -12 -1 -16 -16 -31 -16 -22 0 4 7 -8 1 -26 -12 -18 -13 -30
-19 -26 -12 4 7 2 12 -3 12 -6 0 -11 -6 -11 -12 0 -9 -3 -8 -9 2 -6 8 -8 17
-5 21 2 4 -1 11 -7 15 -7 4 -9 3 -5 -4 3 -6 2 -13 -4 -17 -9 -6 -14 8 -11 28
1 5 -4 5 -11 1 -20 -13 -50 -15 -43 -4 3 5 1 10 -5 10 -6 0 -8 6 -4 13 6 10 4
10 -7 0 -7 -7 -17 -13 -22 -13 -4 0 -5 6 -1 13 4 7 3 9 -2 4 -5 -5 -9 -13 -9
-18 0 -5 -4 -8 -10 -6 -5 1 -9 6 -7 10 1 5 -7 6 -18 2 -11 -4 -20 -2 -20 4 0
6 3 10 8 10 18 -3 46 3 35 7 -7 3 -10 13 -7 22 4 12 1 11 -8 -3 -10 -16 -24
-21 -60 -21 -26 0 -47 2 -46 5 2 20 -6 26 -37 28 -25 1 -33 -2 -29 -10 4 -7 3
-8 -1 -4 -16 14 -14 38 2 35 9 -2 18 4 20 12 4 13 3 13 -6 0 -10 -14 -16 -7
-12 13 1 5 -11 0 -27 -12 -21 -15 -29 -16 -29 -6 0 8 3 14 6 13 3 0 12 0 19 1
16 1 16 21 -1 21 -7 0 -18 10 -26 23 -13 19 -12 21 1 10 11 -10 17 -10 28 0
12 10 12 9 1 -5 -7 -10 -9 -18 -5 -18 5 0 15 9 22 21 8 12 9 18 3 14 -6 -3
-11 -1 -11 4 0 6 -6 11 -14 11 -8 0 -18 5 -22 11 -4 8 0 9 15 4 22 -7 22 -6
25 45 0 14 5 31 10 39 6 9 5 12 -2 7 -5 -3 -12 0 -15 6 -2 7 -8 9 -13 5 -5 -4
-2 -13 6 -18 13 -9 13 -10 0 -6 -21 5 -19 32 2 32 9 0 20 4 25 9 4 5 3 6 -4 2
-16 -9 -11 47 6 68 8 9 9 16 3 16 -9 0 -26 -28 -24 -40 0 -3 -8 -6 -18 -7 -18
-2 -18 -1 1 18 16 16 17 22 7 33 -7 8 -17 11 -23 8 -5 -3 -1 4 9 16 21 24 36
31 17 8 -9 -11 -8 -15 5 -20 24 -9 31 -7 14 4 -12 8 -13 12 -2 19 11 6 10 10
-3 15 -10 3 -24 1 -31 -5 -10 -8 -14 -8 -14 0 0 6 5 11 11 11 6 0 8 7 5 16 -5
13 -3 14 7 6 7 -6 18 -7 26 -3 11 7 9 10 -7 15 -11 4 -23 14 -26 23 -6 14 -4
14 17 0 17 -11 28 -12 38 -5 11 8 11 9 -3 4 -10 -3 -20 -1 -23 4 -4 6 0 10 7
10 11 0 11 2 0 9 -7 4 -14 19 -14 32 -2 30 -34 75 -41 57 -2 -7 5 -25 15 -40
11 -16 16 -28 12 -28 -3 0 0 -8 7 -17 12 -16 12 -17 -2 -6 -9 7 -20 9 -25 5
-4 -4 -2 1 5 11 7 9 9 17 4 17 -5 0 -15 16 -23 35 -7 19 -17 32 -21 29 -4 -2
-14 2 -22 11 -13 13 -16 13 -21 0 -3 -8 -2 -14 2 -14 20 3 31 -4 46 -28 l17
-28 -22 25 c-15 18 -23 21 -27 12 -3 -10 -8 -7 -19 7 -8 12 -19 19 -24 16 -5
-3 -6 1 -3 9 3 9 11 16 17 16 6 0 7 3 4 7 -4 3 -17 -2 -29 -13 -12 -10 -18
-13 -14 -6 4 7 1 12 -8 12 -20 0 -20 -5 0 -24 8 -9 10 -16 4 -16 -6 0 -13 7
-16 15 -4 8 -11 12 -18 8 -8 -4 -8 -3 0 7 9 9 7 17 -7 31 -11 11 -18 23 -15
28 3 4 -1 8 -9 8 -11 0 -10 -7 5 -27 17 -25 18 -29 4 -46 -14 -18 -14 -17 -3
5 10 21 9 23 -5 18 -8 -3 -18 -2 -21 3 -4 6 -11 10 -18 10 -8 0 -8 -3 1 -12 7
-7 12 -16 12 -20 0 -4 -8 0 -18 10 -15 14 -16 19 -4 28 8 6 12 17 9 25 -4 10
-6 8 -6 -5 -1 -16 -3 -17 -17 -5 -18 15 -47 22 -39 9 3 -4 -4 -10 -15 -13 -11
-3 -23 0 -27 5 -4 7 -1 8 7 3 8 -5 11 -4 6 3 -3 5 0 13 6 15 9 4 10 6 1 6 -6
1 -15 -3 -18 -9 -12 -19 -26 -11 -15 9 7 14 7 22 -2 27 -6 4 -8 3 -5 -2 3 -6
1 -16 -4 -24 -8 -13 -10 -13 -19 0 -8 13 -11 13 -22 1 -7 -8 -8 -11 -3 -8 6 3
24 -6 40 -20 25 -21 26 -23 5 -12 -14 7 -28 13 -32 14 -3 0 -10 3 -14 8 -12
11 -26 8 -18 -5 5 -7 3 -8 -5 -4 -9 6 -8 13 5 27 9 11 14 22 11 26 -4 3 -7 1
-7 -6 0 -14 -31 -11 -43 4 -5 6 -6 1 -3 -11 4 -13 2 -21 -7 -21 -9 0 -12 8 -9
22 2 14 -2 24 -13 28 -11 5 -14 3 -9 -5 5 -8 2 -9 -11 -4 -16 6 -16 4 -4 -11
13 -16 12 -17 -3 -5 -10 8 -23 10 -30 6 -10 -6 -11 -5 -1 7 11 13 8 16 -17 16
-17 0 -30 -5 -30 -10 0 -6 -3 -7 -6 -4 -4 4 -1 13 6 22 7 9 10 18 6 22 -3 3
-6 1 -6 -5 0 -7 -5 -12 -11 -12 -5 0 -7 5 -3 12 4 7 3 8 -4 4 -6 -4 -9 -13 -5
-21 4 -11 1 -13 -11 -9 -18 7 -20 16 -7 30 6 5 -4 9 -29 9 -29 1 -36 -2 -29
-11 6 -8 7 -14 0 -18 -11 -7 -18 3 -16 24 1 8 3 21 3 29 2 11 5 11 20 0 16
-13 16 -12 3 4 -14 18 -15 18 -32 -4 -10 -13 -15 -27 -13 -31 3 -4 0 -8 -6 -8
-7 0 -10 6 -7 14 3 7 0 19 -6 26 -9 10 -8 12 5 7 11 -4 15 -2 12 6 -5 13 -72
18 -80 6z m26 -13 c0 6 7 11 15 11 8 0 13 -3 10 -5 -3 -3 1 -12 8 -20 8 -11 8
-14 0 -9 -6 4 -14 3 -18 -3 -3 -5 -2 -10 3 -10 5 0 9 -7 9 -16 0 -14 -2 -14
-14 2 -8 11 -17 18 -21 17 -4 -1 -8 10 -9 24 -1 19 1 22 8 12 5 -8 9 -9 9 -3z
m130 -53 c0 -7 -4 -13 -9 -13 -5 0 -11 6 -14 13 -3 8 1 14 9 14 8 0 14 -6 14
-14z m90 -37 c0 -2 -7 -7 -16 -10 -8 -3 -12 -2 -9 4 6 10 25 14 25 6z m304
-55 c3 -5 -1 -11 -9 -14 -9 -4 -12 -1 -8 9 6 16 10 17 17 5z m-592 -108 c-2
-13 -9 -23 -14 -23 -5 0 -6 5 -3 10 4 6 2 16 -4 23 -7 9 -5 13 8 13 13 0 16
-6 13 -23z m887 -7 c-3 -3 -11 5 -18 17 -13 21 -12 21 5 5 10 -10 16 -20 13
-22z m-852 -61 c0 -8 -4 -12 -9 -9 -5 3 -6 10 -3 15 9 13 12 11 12 -6z m-577
-135 c0 -5 -5 -10 -11 -10 -5 0 -7 5 -4 10 3 6 8 10 11 10 2 0 4 -4 4 -10z
m1415 1 c3 -5 2 -12 -3 -15 -5 -3 -9 1 -9 9 0 17 3 19 12 6z m-1385 -15 c0 -2
-7 -7 -16 -10 -8 -3 -12 -2 -9 4 6 10 25 14 25 6z m250 -12 c0 -2 -7 -4 -15
-4 -8 0 -15 4 -15 10 0 5 7 7 15 4 8 -4 15 -8 15 -10z m23 -4 c-3 -12 -8 -19
-11 -16 -5 6 5 36 12 36 2 0 2 -9 -1 -20z m-368 1 c3 -5 2 -12 -3 -15 -5 -3
-9 1 -9 9 0 17 3 19 12 6z m625 -31 c0 -5 -2 -10 -4 -10 -3 0 -8 5 -11 10 -3
6 -1 10 4 10 6 0 11 -4 11 -10z m880 6 c0 -2 -7 -6 -15 -10 -8 -3 -15 -1 -15
4 0 6 7 10 15 10 8 0 15 -2 15 -4z m-1480 -50 c0 -3 -4 -8 -10 -11 -5 -3 -10
-1 -10 4 0 6 5 11 10 11 6 0 10 -2 10 -4z m16 -26 c0 -12 -4 -16 -9 -11 -5 5
-6 14 -3 20 10 15 12 14 12 -9z m1451 -22 c-9 -6 -8 -10 3 -18 8 -5 11 -10 5
-10 -5 0 -17 5 -25 11 -12 8 -12 12 -2 16 10 4 10 8 0 21 -12 14 -11 14 9 1
16 -9 19 -16 10 -21z m-1484 2 c-3 -11 0 -20 6 -20 6 0 11 -5 11 -10 0 -6 -8
-5 -19 2 -15 9 -17 16 -10 30 13 24 18 23 12 -2z m14 -79 c-1 -19 -20 -22 -34
-6 -4 4 -3 5 3 2 7 -4 14 0 18 8 8 21 15 19 13 -4z m-7 -35 c0 -2 -7 -7 -16
-10 -8 -3 -12 -2 -9 4 6 10 25 14 25 6z m8 -23 c-10 -2 -18 -9 -18 -14 0 -5
-5 -9 -11 -9 -8 0 -8 5 1 15 7 8 20 14 29 14 13 -1 13 -2 -1 -6z m22 -17 c0
-2 -7 -7 -16 -10 -8 -3 -12 -2 -9 4 6 10 25 14 25 6z m-30 -26 c8 -5 12 -11
10 -14 -3 -2 -14 2 -24 10 -22 15 -10 19 14 4z m1550 -24 c0 -2 -7 -7 -16 -10
-8 -3 -12 -2 -9 4 6 10 25 14 25 6z m-1535 -55 c-6 -5 -25 10 -25 20 0 5 6 4
14 -3 8 -7 12 -15 11 -17z m1717 2 c-6 -3 -9 -10 -6 -15 4 -7 2 -8 -5 -4 -9 6
-9 11 0 22 6 8 15 12 18 8 3 -4 0 -9 -7 -11z m-1718 -19 c6 2 8 1 3 -1 -4 -3
-5 -8 -3 -12 3 -4 -1 -8 -9 -8 -8 0 -12 4 -9 9 3 4 0 8 -5 8 -6 0 -11 5 -11
12 0 9 3 9 11 1 6 -6 17 -10 23 -9z m1761 6 c-3 -5 -12 -10 -18 -10 -7 0 -6 4
3 10 19 12 23 12 15 0z m145 -25 c4 3 10 -2 13 -10 5 -12 2 -12 -18 -3 -13 6
-21 16 -18 21 5 8 8 7 11 -1 2 -7 7 -10 12 -7z m-1920 -23 c0 -5 -6 -16 -13
-26 -12 -16 -13 -16 -13 3 0 11 4 17 8 15 4 -3 8 0 8 5 0 6 2 11 5 11 3 0 5
-4 5 -8z m3 -59 c-5 -12 -3 -14 7 -8 7 5 11 4 8 -1 -8 -13 15 -31 36 -28 10 1
15 0 12 -4 -12 -12 -35 -10 -47 4 -6 8 -15 12 -19 9 -4 -3 -14 3 -21 12 -10
12 -10 14 -1 9 7 -4 12 -1 12 8 0 9 4 16 10 16 5 0 6 -7 3 -17z m52 -13 c3 -6
-1 -7 -9 -4 -18 7 -21 14 -7 14 6 0 13 -4 16 -10z m50 -20 c3 -5 1 -10 -4 -10
-6 0 -11 5 -11 10 0 6 2 10 4 10 3 0 8 -4 11 -10z m1925 -20 c0 -5 -2 -10 -4
-10 -3 0 -8 5 -11 10 -3 6 -1 10 4 10 6 0 11 -4 11 -10z m31 -23 c-10 -9 -11
-8 -5 6 3 10 9 15 12 12 3 -3 0 -11 -7 -18z m5 -45 c-4 -3 -13 3 -21 14 -22
28 -18 37 6 13 11 -11 18 -23 15 -27z m4 -35 c0 -5 -6 -5 -13 2 -8 6 -16 8
-19 5 -3 -2 -8 2 -11 10 -5 13 -2 13 18 4 14 -6 25 -16 25 -21z m-1560 3 c0
-5 -5 -10 -11 -10 -5 0 -7 5 -4 10 3 6 8 10 11 10 2 0 4 -4 4 -10z m1540 -20
c0 -5 -4 -10 -10 -10 -5 0 -10 5 -10 10 0 6 5 10 10 10 6 0 10 -4 10 -10z
m-36 -18 c3 -5 -1 -9 -9 -9 -8 0 -12 4 -9 9 3 4 7 8 9 8 2 0 6 -4 9 -8z m46
-7 c-10 -12 -10 -18 1 -32 13 -17 13 -17 -6 -3 -11 8 -22 16 -24 17 -4 3 30
32 38 33 2 0 -2 -7 -9 -15z m-2 -65 c12 -19 11 -20 -8 -8 -11 7 -20 16 -20 20
0 15 15 8 28 -12z m-2 -37 c14 -22 14 -25 2 -15 -14 11 -18 10 -28 -5 -9 -14
-10 -14 -7 -2 3 9 0 23 -6 30 -8 8 -5 8 7 -1 18 -14 19 -13 13 3 -9 25 -2 21
19 -10z m-4 -61 c-7 -2 -10 -8 -7 -12 3 -5 1 -11 -3 -14 -8 -4 -8 15 -3 59 1
6 7 1 13 -9 8 -15 8 -21 0 -24z m-1475 3 c-6 -15 8 -31 16 -18 2 5 2 2 0 -6
-2 -9 3 -11 14 -7 15 5 15 4 -1 -9 -11 -8 -24 -15 -29 -15 -4 0 -6 -4 -2 -10
3 -5 13 -7 23 -4 14 5 14 4 -1 -6 -27 -17 -50 6 -25 24 16 11 16 14 1 28 -8 9
-12 21 -9 27 10 16 19 13 13 -4z m1493 -29 c0 -8 -7 -16 -15 -20 -12 -4 -13
-2 -2 14 14 24 17 25 17 6z m-35 -36 c3 -11 11 -20 16 -20 6 0 7 5 4 10 -3 6
-2 10 3 10 5 0 8 -15 8 -34 -1 -19 -4 -32 -8 -29 -8 4 -12 -13 -9 -31 1 -5 -4
-4 -12 2 -8 7 -17 9 -20 6 -3 -4 -5 3 -4 14 0 12 3 19 6 17 2 -3 10 0 17 6 11
9 10 16 -7 40 -11 16 -16 29 -10 29 5 0 13 -9 16 -20z m-10 -30 c3 -5 1 -10
-4 -10 -6 0 -11 5 -11 10 0 6 2 10 4 10 3 0 8 -4 11 -10z m-299 -45 c-2 -14
-16 -22 -16 -10 0 3 0 10 0 15 0 6 4 10 9 10 5 0 8 -7 7 -15z m33 -11 c-6 -8
-15 -12 -18 -8 -3 4 0 9 7 11 6 3 9 10 6 15 -4 7 -2 8 5 4 9 -6 9 -11 0 -22z
m-306 -34 c-3 -12 -8 -19 -11 -16 -5 6 5 36 12 36 2 0 2 -9 -1 -20z m42 -51
c-10 -15 -25 -10 -19 6 4 8 10 12 15 9 5 -3 7 -10 4 -15z m-898 -30 c-6 -10
-16 -19 -21 -19 -5 0 -1 10 10 22 16 18 17 21 2 15 -12 -4 -15 -2 -11 9 4 11
9 12 19 3 10 -8 11 -15 1 -30z m7 -38 c-10 -10 -23 -16 -28 -13 -5 3 2 11 15
18 33 18 36 17 13 -5z m4 -80 c-7 -9 -13 -18 -15 -20 -1 -1 -7 0 -13 4 -14 9
4 32 25 32 12 0 12 -3 3 -16z m866 0 c3 -5 -2 -15 -12 -22 -15 -12 -16 -12 -5
2 7 9 10 19 6 22 -3 4 -4 7 0 7 3 0 8 -4 11 -9z m-873 -40 c-7 -5 -10 -14 -7
-20 4 -6 12 -8 18 -5 7 4 8 2 4 -4 -5 -9 -12 -9 -26 0 -14 9 -16 16 -8 25 6 7
16 13 22 13 6 0 5 -4 -3 -9z m889 -25 c0 -2 -7 -6 -15 -10 -8 -3 -15 -1 -15 4
0 6 7 10 15 10 8 0 15 -2 15 -4z m-11 -29 c14 4 14 3 1 -6 -11 -8 -12 -13 -3
-19 9 -5 6 -12 -10 -21 -20 -13 -21 -13 -8 2 11 14 11 17 1 17 -8 0 -10 3 -7
7 4 3 1 13 -5 22 -10 13 -10 14 1 4 7 -6 21 -9 30 -6z m3 -155 c-10 -3 -10 -7
0 -20 12 -15 11 -16 -4 -3 -12 9 -18 10 -18 2 0 -6 7 -14 16 -18 13 -5 13 -7
2 -14 -7 -5 -8 -9 -2 -9 17 0 12 -26 -8 -39 -11 -7 -18 -7 -18 -1 0 5 5 10 10
10 6 0 9 12 6 28 -2 15 -5 27 -6 27 -2 0 -3 12 -4 26 -2 22 2 25 18 21 12 -3
15 -7 8 -10z m-881 -31 c-7 -5 -11 -14 -7 -20 5 -7 1 -9 -9 -5 -12 5 -13 9 -4
20 6 8 17 14 23 14 6 0 5 -4 -3 -9z m849 -35 c0 -2 -8 -10 -17 -17 -16 -13
-17 -12 -4 4 13 16 21 21 21 13z m-850 -20 c-17 -17 -11 -29 8 -15 15 12 16
12 5 -2 -7 -9 -9 -20 -5 -25 4 -4 0 -3 -9 4 -9 6 -20 8 -24 4 -5 -4 -5 -1 -1
6 4 7 2 19 -4 27 -10 13 -8 15 14 13 17 -2 22 -6 16 -12z m860 -76 c0 -5 -5
-10 -11 -10 -5 0 -7 5 -4 10 3 6 8 10 11 10 2 0 4 -4 4 -10z m-6 -38 c3 -5 -1
-9 -9 -9 -8 0 -12 4 -9 9 3 4 7 8 9 8 2 0 6 -4 9 -8z m21 -32 c3 -6 -1 -7 -9
-4 -18 7 -21 14 -7 14 6 0 13 -4 16 -10z m5 -75 c-7 -8 -17 -15 -23 -15 -6 0
-2 7 9 15 25 19 30 19 14 0z m-632 -51 c2 -1 -5 -5 -15 -8 -9 -4 -14 -4 -10 0
4 4 1 14 -6 23 -11 14 -10 15 8 1 11 -8 21 -15 23 -16z m632 22 c0 -3 -4 -8
-10 -11 -5 -3 -10 -1 -10 4 0 6 5 11 10 11 6 0 10 -2 10 -4z m-539 -39 c-10
-9 -11 -8 -5 6 3 10 9 15 12 12 3 -3 0 -11 -7 -18z m527 -74 c-14 -18 -30 -6
-19 15 4 9 6 24 4 32 -2 8 3 4 11 -10 10 -17 11 -29 4 -37z m-43 -2 c3 -5 2
-12 -3 -15 -5 -3 -9 1 -9 9 0 17 3 19 12 6z m-155 -32 c0 8 3 11 6 8 11 -11
-17 -36 -33 -30 -12 5 -12 7 -1 14 10 7 11 9 0 9 -7 0 -10 5 -7 11 5 6 12 4
21 -8 10 -13 13 -14 14 -4z"/>
<path d="M2320 1115 c-7 -9 -11 -17 -9 -20 3 -2 10 5 17 15 14 24 10 26 -8 5z"/>
<path d="M1155 2529 c-4 -6 -5 -12 -2 -15 2 -3 7 2 10 11 7 17 1 20 -8 4z"/>
<path d="M1195 2520 c3 -5 8 -10 11 -10 2 0 4 5 4 10 0 6 -5 10 -11 10 -5 0
-7 -4 -4 -10z"/>
<path d="M1510 2421 c0 -5 5 -13 10 -16 6 -3 10 -2 10 4 0 5 -4 13 -10 16 -5
3 -10 2 -10 -4z"/>
<path d="M1566 2418 c3 -5 10 -6 15 -3 13 9 11 12 -6 12 -8 0 -12 -4 -9 -9z"/>
<path d="M561 2124 c0 -11 3 -14 6 -6 3 7 2 16 -1 19 -3 4 -6 -2 -5 -13z"/>
<path d="M676 2117 c3 -10 9 -15 12 -12 3 3 0 11 -7 18 -10 9 -11 8 -5 -6z"/>
<path d="M773 2075 c0 -8 4 -12 9 -9 5 3 6 10 3 15 -9 13 -12 11 -12 -6z"/>
<path d="M1790 2080 c0 -5 5 -10 11 -10 5 0 7 5 4 10 -3 6 -8 10 -11 10 -2 0
-4 -4 -4 -10z"/>
<path d="M1785 1860 c-3 -6 1 -7 9 -4 18 7 21 14 7 14 -6 0 -13 -4 -16 -10z"/>
<path d="M1820 1800 c-8 -5 -10 -10 -5 -10 6 0 17 5 25 10 8 5 11 10 5 10 -5
0 -17 -5 -25 -10z"/>
<path d="M1861 1795 c-2 -29 39 -42 46 -15 4 13 3 13 -6 0 -8 -11 -11 -12 -11
-2 0 7 -4 11 -9 8 -5 -4 -12 0 -14 6 -3 7 -6 9 -6 3z"/>
<path d="M1925 1780 c-3 -5 -1 -10 4 -10 6 0 11 5 11 10 0 6 -2 10 -4 10 -3 0
-8 -4 -11 -10z"/>
<path d="M2126 1703 c-6 -14 -5 -15 5 -6 7 7 10 15 7 18 -3 3 -9 -2 -12 -12z"/>
<path d="M2150 1699 c0 -5 5 -7 10 -4 6 3 10 8 10 11 0 2 -4 4 -10 4 -5 0 -10
-5 -10 -11z"/>
<path d="M2313 1635 c0 -8 4 -12 9 -9 4 3 8 9 8 15 0 5 -4 9 -8 9 -5 0 -9 -7
-9 -15z"/>
<path d="M380 1520 c0 -5 5 -10 11 -10 5 0 7 5 4 10 -3 6 -8 10 -11 10 -2 0
-4 -4 -4 -10z"/>
<path d="M1825 1131 c-3 -5 0 -13 6 -17 8 -4 9 -3 5 4 -4 7 -2 12 3 12 6 0 11
-5 11 -11 0 -5 5 -7 11 -3 8 4 7 9 -2 15 -18 11 -26 11 -34 0z"/>
<path d="M1884 1122 c3 -5 1 -12 -6 -14 -8 -3 -9 -6 -1 -11 6 -4 13 0 17 8 3
8 0 17 -6 21 -6 4 -8 3 -4 -4z"/>
<path d="M1910 1099 c0 -5 5 -7 10 -4 6 3 10 8 10 11 0 2 -4 4 -10 4 -5 0 -10
-5 -10 -11z"/>
<path d="M815 1060 c3 -5 8 -10 11 -10 2 0 4 5 4 10 0 6 -5 10 -11 10 -5 0 -7
-4 -4 -10z"/>
<path d="M2095 1050 c10 -11 20 -20 22 -20 2 0 -1 9 -7 20 -6 11 -16 20 -22
20 -6 0 -3 -9 7 -20z"/>
<path d="M1760 1040 c18 -12 30 -13 30 -2 0 4 -10 9 -22 9 -18 2 -20 0 -8 -7z"/>
<path d="M2148 1032 c-4 -12 1 -18 13 -18 14 0 15 4 8 18 -5 10 -11 18 -13 18
-2 0 -6 -8 -8 -18z"/>
<path d="M2200 1037 c0 -3 12 -12 26 -22 15 -9 23 -12 20 -6 -7 11 -46 35 -46
28z"/>
<path d="M2270 1030 c-9 -6 -10 -10 -3 -10 6 0 15 5 18 10 8 12 4 12 -15 0z"/>
<path d="M830 906 c0 -2 8 -10 18 -17 15 -13 16 -12 3 4 -13 16 -21 21 -21 13z"/>
<path d="M1754 899 c-7 -12 14 -39 30 -39 6 0 4 5 -4 10 -12 8 -13 12 -2 19
11 7 11 9 -2 14 -8 3 -18 2 -22 -4z"/>
<path d="M1793 795 c0 -8 4 -12 9 -9 5 3 6 10 3 15 -9 13 -12 11 -12 -6z"/>
<path d="M1757 681 c6 -7 9 -20 6 -27 -3 -8 -3 -14 0 -14 14 0 14 30 -1 41
-14 11 -15 11 -5 0z"/>
<path d="M1756 423 c-8 -9 13 -43 27 -43 8 0 6 4 -3 10 -12 8 -13 12 -2 19 11
7 11 9 -1 14 -8 3 -18 3 -21 0z"/>
<path d="M834 360 c0 -10 2 -17 4 -15 9 8 29 -21 25 -35 -4 -12 -3 -13 5 -1
14 20 8 43 -14 58 -17 11 -20 10 -20 -7z"/>
<path d="M1785 360 c3 -5 8 -10 11 -10 2 0 4 5 4 10 0 6 -5 10 -11 10 -5 0 -7
-4 -4 -10z"/>
<path d="M1780 246 c0 -9 -4 -15 -8 -12 -5 3 -9 -1 -9 -9 0 -8 4 -15 8 -15 10
0 23 40 15 47 -3 4 -6 -1 -6 -11z"/>
<path d="M990 243 c0 -6 8 -17 18 -24 16 -13 16 -13 2 6 -8 11 -16 22 -17 24
-2 2 -3 0 -3 -6z"/>
<path d="M1155 220 c-4 -6 -4 -14 -1 -17 3 -4 6 -1 6 6 0 7 5 9 10 6 6 -4 8
-11 5 -16 -4 -5 -1 -9 4 -9 15 0 14 15 -3 29 -10 9 -16 9 -21 1z"/>
<path d="M1336 171 c-4 -6 0 -14 8 -17 9 -3 13 -11 9 -18 -3 -6 3 -2 15 8 12
11 20 22 17 25 -4 3 -10 -1 -14 -8 -7 -11 -11 -10 -18 4 -7 12 -12 14 -17 6z"/>
<path d="M1435 101 c-3 -5 0 -13 6 -17 8 -5 9 -3 4 6 -6 10 -4 12 9 7 10 -4
15 -3 11 3 -8 13 -22 13 -30 1z"/>
</g>
</svg>
